/* XPM */
static char *result[] = {
/* columns rows colors chars-per-pixel */
"32 32 44 1 ",
"  c #654E2B",
". c #67502C",
"X c #6A532E",
"o c #6E5630",
"O c #6F5831",
"+ c #705730",
"@ c #745C34",
"# c #7A5E35",
"$ c #795F38",
"% c #7D6137",
"& c #7E6339",
"* c #806337",
"= c #826539",
"- c #85693C",
"; c #886B3E",
": c #91703E",
"> c #8B6E41",
", c #967441",
"< c #997743",
"1 c #9B7944",
"2 c #9A7F4A",
"3 c #A17E49",
"4 c #9D824C",
"5 c #A1854E",
"6 c #A4884F",
"7 c #A38750",
"8 c #A68951",
"9 c #AD8E54",
"0 c #AF8D5A",
"q c #B08F56",
"w c #B28E5A",
"e c #B19056",
"r c #B5925D",
"t c #B9955E",
"y c #BD995E",
"u c #B99560",
"i c #BF9A61",
"p c #C29D62",
"a c #C5A064",
"s c #CBA466",
"d c #CCA569",
"f c #928FB8",
"g c #9AA8B5",
"h c #C7D4E1",
/* pixels */
"treethhppppppppptuppaiapppiiur,,",
"udrrppgsssssssssipsssssssssshff,",
"uuurqqgf5388erttruuteeerttttgf44",
"uiuue999fhhh99ttuture99ettth4484",
"qtttrrrt9frffgg7777757e9qqggt01<",
"qrttuuuuhgtuqggffhhhhh99eqhuut1,",
"13>>>>1h1gg>%#@#-f--##hh%h%%>;@O",
"::*##%>h:>g@    f#&#  ##h g %@. ",
"tyty72thyyhhhggffhhtttqh78h844r0",
"yppp84hppphaap76paphhhfhr9h947iu",
"qtttrwhq88eh87,<58reegffrrhfrrr9",
"qrrtttf9449hff,,4599ggrttrufrrr9",
"58669qft99gff9hhgffhtheee96f7787",
"564499ftqeg9hh<<rtgtthe9ee4h4474",
"X@XX*hg-<gg-#hX+hg#$hfffhhhh-&#O",
"XXXX#gg%,h&#.hfff  .g%%%%%,h%%..",
"wutuhfwhhhfffhfgghttgtyyyyyhr044",
"uphffhhtefeepppgpphggpapppghtr85",
"thffguuurfhrr9hh6566eg66eeh6741,",
"upq9grruutgh99h444hhggg599h4441,",
"pdythqq97hg5hgffhh9e99ehf4f7ur74",
"pstw9h99h4444gf4999999ggfff7ur84",
"o@oo&=gg,,=%XhXX.o&-<hg=&hfo@@@O",
"+#oX&-hg<<--h+oXOo&hh:=%=hfo.XOX",
"pd64etigpprrhw45tghiyy46iihgghat",
"ud85rtihhhrhuthhggppai46pittppsa",
"qt99rttt6hhfffh548rutt9eur09eey9",
"qt99qrrt75g5994457rrtt99tr9e99e9",
"ey65779rttgq55,<ruuue96464446486",
"69242266qhg844,<qrww984444444444",
" o#===+XXh=-<1<<<,--OO-&ooOoOXOo",
"  #**%X  X%*:<,,,,&#..%@...  .X "
};
