/* XPM */
static char *_ef1379838064d77aaac0c33250b3b3fCWKYr5MI778410BQ[] = {
/* columns rows colors chars-per-pixel */
"32 32 69 1 ",
"  c #644E2A",
". c #67502C",
"X c #6A532E",
"o c #6E5630",
"O c #6F5831",
"+ c #705730",
"@ c #745C34",
"# c #7A5F35",
"$ c #795F38",
"% c #7D6136",
"& c #7E6339",
"* c #806337",
"= c #826539",
"- c #85693C",
"; c #886B3E",
": c #92713F",
"> c #8C6E41",
", c #967441",
"< c #997743",
"1 c #9B7944",
"2 c #9B7E49",
"3 c #A17C46",
"4 c #A17E49",
"5 c #9D834C",
"6 c #A1854E",
"7 c #A4884F",
"8 c #A38750",
"9 c #A68951",
"0 c #AD8D54",
"q c #AE8E55",
"w c #B18F57",
"e c #B08E5A",
"r c #B38F5B",
"t c #B29257",
"y c #B39357",
"u c #B29058",
"i c #B49359",
"p c #B69558",
"a c #B7955A",
"s c #B3905C",
"d c #B7935D",
"f c #B7935F",
"g c #B7945C",
"h c #B7945E",
"j c #B89759",
"k c #B8945F",
"l c #BA955F",
"z c #BB965F",
"x c #BC985E",
"c c #BD995F",
"v c #B89460",
"b c #BB9561",
"n c #B99660",
"m c #BB9661",
"M c #BF9B60",
"N c #BD9862",
"B c #C09A63",
"V c #C19B63",
"C c #C09C61",
"Z c #C49E63",
"A c #C59F63",
"S c #C09B64",
"D c #C39C65",
"F c #C59F64",
"G c #C5A064",
"H c #C9A366",
"J c #CBA466",
"K c #CBA567",
"L c #CAA369",
/* pixels */
"kfeqkkCCFNACACCAhkCANFGNCGCcmu11",
"kLjjVDJJJJJJJJJJVVJJHJJJJJJJDk2:",
"kNffwtit6199uikkkkvhptpakkkh7655",
"vSkkt0q0<:550wkkkkkvq00qhkkk6576",
"eggkfffiq0wftq99798866qqquggfe1<",
"wjgkkkkktqhvtq55555556qqquvkkg1<",
"14>>>>1211>>%@@@----%@;-&%%%;;@+",
":1*###:,<:%@    %%%# .%%    %@. ",
"rzkz92vxxNkjka25kjzkkjee889955ue",
"zVAA95VACGGAGV66AGGCAAvkequ066Sv",
"ejgbirww99tw96<<79tttuffgvfvrire",
"0jggvgw0650055,,56qqqqfkvgfgbgy0",
"6099qwifqqqqqq<<egggfftqqq869799",
"57550qffqqtqt0<<fgvvvfqqqq555565",
"X@XX&-=-<<;-@@XX$@#$-;;-;;<,-*@@",
"XXX.#&%*,,%#X XX   .%%%%&*,,&#X ",
"evjzNggeqq6qkxgzbzkxxxNxxxxbae62",
"gAVAAAvkwqtuCGVVVFGCACCAFCMVhf96",
"vSt0gvkfffvvt0666667tw77tt77651<",
"gFe0vgfffuggy05555560056q055551,",
"FJbgeetq66966666qtqt0t008858ku95",
"SJggqq0065555555000000005558vh95",
"o@+o&*,<,,=%XXXXX@%=<:-=&&oo@@@O",
"o#oX*-,1<<;=@@XXXo%-<:&&=&o.XXoX",
"SL72wvzVMCkigi55xxNxcx56xxssxxGx",
"SJ05gvVCVbkfgv66CCCCGN59FCfvCGJC",
"wjwwffkk9556eq6676hhkkqtvhqqtqjy",
"qj00eivg6666q05567hhhkqqffqq00aq",
"yj7565wwfgew66<<hvvvqq5665656596",
"70525270ww0765:<eeua075555555565",
" +#--=XXX@=-<111<<--o@-&ooXooXOX",
"..%%%%X. X#=::,,,:&#..%@......X."
};
