/* XPM */
static char *result[] = {
/* columns rows colors chars-per-pixel */
"32 32 47 1 ",
"  c #050914",
". c #73263D",
"X c #654E2B",
"o c #67502C",
"O c #6A532E",
"+ c #6E5630",
"@ c #705730",
"# c #735B33",
"$ c #7A5E35",
"% c #7C6137",
"& c #7E6339",
"* c #153C4A",
"= c #2C645E",
"- c #806337",
"; c #826539",
": c #85693C",
"> c #896C3E",
", c #92713F",
"< c #8C6E41",
"1 c #957441",
"2 c #997743",
"3 c #9B7945",
"4 c #9C7D49",
"5 c #A17E49",
"6 c #77B02A",
"7 c #429058",
"8 c #C6D831",
"9 c #9D824C",
"0 c #A1854E",
"q c #A4884F",
"w c #A38750",
"e c #A68951",
"r c #AD8D54",
"t c #AF8D5A",
"y c #B08F56",
"u c #B18E5A",
"i c #B19156",
"p c #B5925C",
"a c #B9955E",
"s c #BD995E",
"d c #B99560",
"f c #BE9A60",
"g c #C29D63",
"h c #CBA466",
"j c #CCA569",
"k c #607D8B",
"l c #928FB8",
/* pixels */
"apiiapggggggggggadgghsggggffdp11",
"djppgghjjjhhhhhhgghhhhhhhhhhgd51",
"dddpiiii54eeipaadpaaipipasaawq99",
"dfddirrr1199rraadddpirripaap99qq",
"yaddappprripirew.wewwwirrtddpu32",
"rppdddddiiddir9.999999rrrrdddp31",
"35<<<<3333<8886666888%>:%%%%<:##",
",3%$$$1111888866668888%$XXXX$$XX",
"udas94afss888666666888utweee99pu",
"sggge9ggggh 666==666 gdaitir9wgd",
"yaaappiiww 666====666 adppppppuu",
"rpaadaur99 666====666 addaddaair",
"0rqqriapr k6666==6666k iirwwqweq",
"9090rrppi k6666==6666k rrr9999q9",
"O#OO-::: k>7666666667>k >>21:&##",
"OOOO$%% kl-7666666667%lk -11%%oX",
"udassap kle7766666677dlk ssait99",
"dggggg kiuk7777777777khfk hgddw9",
"agyrad lapk7777**7777kwel www932",
"dgurp kdlld7777**7777rllrk 99931",
"ghaau krlwl7777**7777lrlwk wdpw9",
"ghau krl09l977 ** 77rlrrl9k dpe9",
"+#@+ k1111l%77 77 773l-;&&k ###+",
"@#++; k3ll>-@ *77* -21ll-k o+o++",
"gj09y klggpp k*77*k fa99lk pdshp",
"gjr0pa kffa kpq77ggk h9ek ddhfhh",
"yarrpaa    krrq999aak    arriiii",
"rarrupppe99qrr999epappiidarrrrir",
"isqqq9riadiiq913ddddir99e9999qeq",
"qe4449eerure9911ippure9999999999",
"X@$:::#OOO;:333331:&@@&&++O+@O@O",
"XO$%%%OXoO%;,,1111&%oo&%ooXoooOo"
};
