/* XPM */
static char *result[] = {
/* columns rows colors chars-per-pixel */
"32 32 46 1 ",
"  c #3B063A",
". c #654E2A",
"X c #67502C",
"o c #6A532E",
"O c #6E5630",
"+ c #6F5831",
"@ c #705730",
"# c #745B33",
"$ c #7A5E34",
"% c #7D6137",
"& c #7E6339",
"* c #42004E",
"= c #691749",
"- c #BD4035",
"; c #806337",
": c #826639",
"> c #85693C",
", c #886B3E",
"< c #93713F",
"1 c #8C6E41",
"2 c #957441",
"3 c #997743",
"4 c #9B7944",
"5 c #9C7D49",
"6 c #A17C46",
"7 c #A17E49",
"8 c #429058",
"9 c #9D824C",
"0 c #A1854E",
"q c #A4884F",
"w c #A38750",
"e c #A68951",
"r c #AD8D54",
"t c #AF8D5A",
"y c #B18F57",
"u c #B18E5B",
"i c #B19157",
"p c #B5925C",
"a c #B9955E",
"s c #BD995F",
"d c #B99560",
"f c #BF9A60",
"g c #C29D62",
"h c #C5A064",
"j c #CBA466",
"k c #CCA569",
/* pixels */
"adrradggggggggggpdggggggggffsp22",
"djaaggjjkkjjjjjjggjjjjjjjjjjfd52",
"dddpiiii75ee aaadpd iaip aaaeq09",
"dddd rrr2299 raaddp irr  aap99q0",
"yapd  dprrip  eqwww wwr uidppu43",
"ypaad  diiddi 0999  99  rrdddp42",
"461111 5441,% ##>> >%# >%%%%1,##",
"<4;$$$  <2;#.  .$% $.  %....$#..",
"paaaw5a  saaa  9as aa  twwee59pt",
"aggge9fh ghhhg qf  h  daiyir0wgd",
"ipaapuiy  iieq  q ii  pdpppppppt",
"yaaaadyr9  r         ra***ddaair",
"0eqqriparr  *******  p** **w0wew",
"0q99rrpai *********** *   *999w9",
"o#oo;>>> ***=======***    82::##",
"oooo$;%% **===---===**     2%%XX",
"uaaasduu **===---===**     ait99",
"dgggggda ***=======***    8gdde9",
"agyyadddp *********** *   *ew943",
"dgurpapddd  *******  r** **99942",
"gkaaiiriw  9         rr***0wdp09",
"gjapterr  9999  r rr  rr999wdpe9",
"O#OO%>23 2:%oo oo  :  ::&&O+###O",
"@#Oo%>3  3>>#  OOO :3  &:&XOXoOO",
"gkq9ia  gfadp  9ss sf  0ffppsshs",
"gke0pa ggfppd 00sh shf qgfddggjg",
"ypira  aw990r 009q  aa  dptriiai",
"rarru ppw000  999qp aar aprrriir",
"isq0  yiadir 923add ir0  09999eq",
"qe95 5eeuuer 923ipu re99 9999999",
".@$>:>@ooo;>444342>>++:&+OOOOO+O",
"XX$%%%oX.o$;232222%$.o%%......O."
};
