/* XPM */
static char * floor_xpm[] = {
"32 32 244 2",
"   c #676767",
". c #7D7D7D",
"+ c #7A7979",
"@ c #797979",
"# c #797978",
"$ c #797878",
"% c #848483",
"& c #8A8988",
"* c #888887",
"= c #8E8D8C",
"- c #8E8D8D",
"; c #919090",
"> c #8D8C8C",
", c #8F8D8D",
"' c #8C8B8A",
") c #8B8B8A",
"! c #8D8C8B",
"~ c #868685",
"{ c #858484",
"] c #818180",
"^ c #656464",
"/ c #767676",
"( c #A7A6A5",
"_ c #A19F9F",
": c #A1A09F",
"< c #A19F9E",
"[ c #A1A09E",
"} c #A2A1A0",
"| c #A09F9E",
"1 c #9D9C9B",
"2 c #747373",
"3 c #9A9999",
"4 c #A5A4A3",
"5 c #A4A3A2",
"6 c #A5A4A4",
"7 c #A6A5A4",
"8 c #A7A5A5",
"9 c #A8A6A6",
"0 c #A3A2A2",
"a c #A3A2A1",
"b c #9F9E9D",
"c c #70706F",
"d c #6F6F6F",
"e c #969594",
"f c #8C8B8B",
"g c #8A8989",
"h c #898887",
"i c #888786",
"j c #686868",
"k c #969494",
"l c #919191",
"m c #929292",
"n c #939292",
"o c #929190",
"p c #929191",
"q c #91908F",
"r c #8F8E8E",
"s c #8E8C8C",
"t c #8E8E8E",
"u c #8E8E8D",
"v c #8D8D8D",
"w c #8B8B8B",
"x c #666665",
"y c #959493",
"z c #8C8C8C",
"A c #8A8A89",
"B c #888787",
"C c #868585",
"D c #909090",
"E c #929291",
"F c #939393",
"G c #908F8F",
"H c #919190",
"I c #908E8D",
"J c #888888",
"K c #908F8E",
"L c #686767",
"M c #939291",
"N c #939392",
"O c #898786",
"P c #878685",
"Q c #707070",
"R c #979695",
"S c #8C8C8B",
"T c #868584",
"U c #8F8F8E",
"V c #979594",
"W c #8F8E8D",
"X c #8C8A89",
"Y c #676766",
"Z c #8B8A8A",
"` c #908E8E",
" . c #90908F",
".. c #8D8B8A",
"+. c #878786",
"@. c #838383",
"#. c #636362",
"$. c #8B8A89",
"%. c #8A8887",
"&. c #898988",
"*. c #898787",
"=. c #636363",
"-. c #969695",
";. c #8F8F8F",
">. c #888785",
",. c #858583",
"'. c #686766",
"). c #8B8988",
"!. c #888685",
"~. c #888686",
"{. c #848484",
"]. c #969595",
"^. c #838382",
"/. c #8A8A8A",
"(. c #898886",
"_. c #878686",
":. c #878584",
"<. c #858483",
"[. c #878684",
"}. c #858585",
"|. c #828181",
"1. c #616161",
"2. c #979694",
"3. c #6B6B6B",
"4. c #6B6A6A",
"5. c #686867",
"6. c #696868",
"7. c #696867",
"8. c #696968",
"9. c #666565",
"0. c #6C6B6B",
"a. c #6C6B6A",
"b. c #6B6B6A",
"c. c #5C5C5C",
"d. c #706F6F",
"e. c #989594",
"f. c #949392",
"g. c #979796",
"h. c #A6A4A4",
"i. c #A4A3A3",
"j. c #A3A1A1",
"k. c #A2A1A1",
"l. c #A1A0A0",
"m. c #9A9898",
"n. c #9F9E9E",
"o. c #9E9C9C",
"p. c #9D9C9C",
"q. c #9E9D9D",
"r. c #9F9D9D",
"s. c #9D9B9B",
"t. c #959494",
"u. c #9A9A9A",
"v. c #9B9999",
"w. c #999897",
"x. c #999797",
"y. c #767575",
"z. c #9E9C9B",
"A. c #989796",
"B. c #979696",
"C. c #929090",
"D. c #636262",
"E. c #8B8A88",
"F. c #949292",
"G. c #939191",
"H. c #6F6E6E",
"I. c #979595",
"J. c #626161",
"K. c #6E6E6E",
"L. c #959594",
"M. c #8E8C8B",
"N. c #959393",
"O. c #918F8F",
"P. c #8C8B89",
"Q. c #616160",
"R. c #949393",
"S. c #6D6D6D",
"T. c #949493",
"U. c #626262",
"V. c #898888",
"W. c #6F6E6D",
"X. c #9A9998",
"Y. c #939391",
"Z. c #848383",
"`. c #8A8987",
" + c #6E6D6D",
".+ c #9B9A99",
"++ c #606060",
"@+ c #6E6E6D",
"#+ c #8D8B89",
"$+ c #8D8B8B",
"%+ c #8B8989",
"&+ c #8A8888",
"*+ c #6F6F6E",
"=+ c #9A9897",
"-+ c #6D6D6C",
";+ c #868583",
">+ c #818181",
",+ c #656564",
"'+ c #9E9D9C",
")+ c #9A9A98",
"!+ c #9B9998",
"~+ c #999796",
"{+ c #6A6969",
"]+ c #676666",
"^+ c #676665",
"/+ c #5E5E5E",
"(+ c #6D6C6C",
"_+ c #6A6A69",
":+ c #6A6968",
"<+ c #9C9A99",
"[+ c #9C9B9A",
"}+ c #7E7D7C",
"|+ c #ACAAAA",
"1+ c #A4A3A1",
"2+ c #A6A4A3",
"3+ c #A4A2A2",
"4+ c #818080",
"5+ c #9A9A99",
"6+ c #999898",
"7+ c #787776",
"8+ c #757575",
"9+ c #9C9A9A",
"0+ c #717171",
"a+ c #616060",
"b+ c #717170",
"c+ c #757474",
"d+ c #969493",
"e+ c #A09E9D",
"f+ c #9A9997",
"g+ c #8C8A8A",
"h+ c #747474",
"i+ c #969593",
"j+ c #989695",
"k+ c #747473",
"l+ c #8D8C8A",
"m+ c #60605F",
"n+ c #737373",
"o+ c #898989",
"p+ c #5F5F5E",
"q+ c #646363",
"r+ c #646463",
"s+ c #5D5D5D",
"t+ c #646464",
"u+ c #585858",
"  . + @ @ # @ $ @ $   % & * & = - ; - > , = ' ) ' ! ) ~ { % ] ^ ",
"/ ( _ : < [ } | | 1 2 3 ( 4 5 5 6 7 4 7 8 ( 7 9 7 0 a } a a b c ",
"d e ! ' ! ! f g h i j - k l m n o o m p q o r s t u f = f v w x ",
"d y v r ; u z A B C j z n D E F p q G p o p H I > ! z - > z J x ",
"c e K K ; K v ' h ~ L ) E r ; F o M n F D N M M q r - g O P C ^ ",
"Q R K q o q r S B T L ! o K l m H U H p E ; K r = > ' O P ~ T ^ ",
"Q V W H M q K X i T Y Z M = K ` H ; U  .; r S ..' & * P P +.@.#.",
"Q e K o M ; W $.P { L $.o ..- = ' Z ' & %.g h h &.*.i i P i { =.",
"d -.;.q N ; W ' >.,.'.* W ).$.g &.).%.P { C !.P i !.i ~.* i {.#.",
"Q ].r o N ; K ' !.^.Y C /.(.O O _.P _.P :.T <.[.[._.T ~ }.{ |.1.",
"Q 2.U q n ; r $.T T =.3.4.5.6.7.7.L 8.6.9.4.0.a.3.0.0.b.0.4.5.c.",
"d.e.W o f.q = $.>.P 5.g.h.0 i.j.j.0 k.l.|.m.n.1 o.p.q.r.p.s.t.9.",
"d y = K o K ! & ~ T   r b u.v.v.m.w.x.R y.k z.A.x.w.A.w.x.B.C.D.",
"Q V = K o K = E.i T j A ].m F.G.; q K S H.; I.q q W  .K r = h J.",
"K.L.z  .q W M.' P T   $.N.M N.F.o O.` P.K.o R M o o p ; G W h Q.",
"d y - q q q ! X h T   g R.M N.F.q q r ' S.M A.f.M T.M H q = A U.",
"K.y =  .r u f A i T L g R.K p ;.K > > V.W.N.X.f.y y f.p ; r A 1.",
"d Y.S v = z %.B P Z.  h M ` - = M...X `. +N..+y R e T.f.o K E.++",
"@+o /./.P.$.h C P <.x B o #+..$+..%+&+%.*+].1 w.=+A.e f.f.` $.J.",
"-+H * J P !.;+% Z.>+,+P C.$.' E.V.*.*._.S.t.'+)+.+!+~+R.f.l ' 1.",
"U.*+{+7.  5.]+Y ^+x /+0.(+_+{+{+:+8.5.  1.R b <+[+[+X.V y o X 1.",
"}+|+5 1+4 4 4 4 2+5 4 h.5 3+a a a 0 a } 4+R | [+[+s.w.A.e C.$.=.",
"y.a 5+A.x.X.X..+[+.+5+3 X.w.w.w.A.w.w.6+7+6+b .+s.o.!+A.y G.' 1.",
"8+9+H K q K q p E p o o q q G K W W ;.z 0+X.: !+[+s.m.R y p $.a+",
"8+X.t U G o o M R.R.T.y M n q q K K G > b+-.| X.X..+!+R y M ' J.",
"c+X.K H o M f.d+R R R ].e f.M p  .G W $+c g.e+f+.+w.A.e f.o g+U.",
"h+w.;.D E N d+R A.A.A.A.R e y M K K r f Q i+[+~+A.R e f.H q $.++",
"8+9+G o M T.R V w.w.w.j+R I.k M u = > Z d.f.X.f.y f.E D q ` g =.",
"k+!+W K q o M f.e y t.y N.y M q = l+S ' d.E A.o p H G - v ! h m+",
"h+X.= W r r K K O.; G ; C.K K U - - r ' d.K k O.q K K , X ' h ++",
"n+e /.$.g o+$.X o+..' g E.$.g & h & & !.K.g  ./.) $.o+g * V.<.p+",
"1.{+,+q+r+^ #.r+#.U.r+=.r+q+r+r+r+^ =.=.s+5.Y 9.,+q+t+r+D.=.J.u+"};